<mxfile host="app.diagrams.net" agent="Mozilla/5.0 (X11; Linux x86_64; rv:136.0) Gecko/20100101 Firefox/136.0" version="26.1.0" pages="3">
  <diagram id="R2lEEEUBdFMjLlhIrx00" name="Conceptual Data Model">
    <mxGraphModel dx="1873" dy="1187" grid="1" gridSize="10" guides="1" tooltips="1" connect="1" arrows="1" fold="1" page="1" pageScale="1" pageWidth="850" pageHeight="1100" math="0" shadow="0" extFonts="Permanent Marker^https://fonts.googleapis.com/css?family=Permanent+Marker">
      <root>
        <mxCell id="0" />
        <mxCell id="1" parent="0" />
        <mxCell id="4_8s0p-dxPG18xKzeY0c-27" style="edgeStyle=orthogonalEdgeStyle;rounded=0;orthogonalLoop=1;jettySize=auto;html=1;exitX=0;exitY=0.25;exitDx=0;exitDy=0;entryX=0.25;entryY=0;entryDx=0;entryDy=0;" edge="1" parent="1" source="_VHohxqzNn0DekYgk-H4-2" target="_VHohxqzNn0DekYgk-H4-4">
          <mxGeometry relative="1" as="geometry" />
        </mxCell>
        <mxCell id="4_8s0p-dxPG18xKzeY0c-28" value="Is associated to" style="edgeLabel;html=1;align=center;verticalAlign=middle;resizable=0;points=[];" vertex="1" connectable="0" parent="4_8s0p-dxPG18xKzeY0c-27">
          <mxGeometry x="0.8507" y="2" relative="1" as="geometry">
            <mxPoint as="offset" />
          </mxGeometry>
        </mxCell>
        <mxCell id="4_8s0p-dxPG18xKzeY0c-31" value="Gives contextual data" style="edgeLabel;html=1;align=center;verticalAlign=middle;resizable=0;points=[];" vertex="1" connectable="0" parent="4_8s0p-dxPG18xKzeY0c-27">
          <mxGeometry x="-0.4507" relative="1" as="geometry">
            <mxPoint as="offset" />
          </mxGeometry>
        </mxCell>
        <mxCell id="4_8s0p-dxPG18xKzeY0c-29" style="edgeStyle=orthogonalEdgeStyle;rounded=0;orthogonalLoop=1;jettySize=auto;html=1;exitX=0;exitY=0.75;exitDx=0;exitDy=0;" edge="1" parent="1" source="_VHohxqzNn0DekYgk-H4-2" target="_VHohxqzNn0DekYgk-H4-5">
          <mxGeometry relative="1" as="geometry" />
        </mxCell>
        <mxCell id="4_8s0p-dxPG18xKzeY0c-30" value="Is associated to" style="edgeLabel;html=1;align=center;verticalAlign=middle;resizable=0;points=[];" vertex="1" connectable="0" parent="4_8s0p-dxPG18xKzeY0c-29">
          <mxGeometry x="0.6571" y="1" relative="1" as="geometry">
            <mxPoint as="offset" />
          </mxGeometry>
        </mxCell>
        <mxCell id="4_8s0p-dxPG18xKzeY0c-32" value="Text" style="edgeLabel;html=1;align=center;verticalAlign=middle;resizable=0;points=[];" vertex="1" connectable="0" parent="4_8s0p-dxPG18xKzeY0c-29">
          <mxGeometry x="-0.4286" y="2" relative="1" as="geometry">
            <mxPoint as="offset" />
          </mxGeometry>
        </mxCell>
        <mxCell id="4_8s0p-dxPG18xKzeY0c-33" value="Gives contextual data" style="edgeLabel;html=1;align=center;verticalAlign=middle;resizable=0;points=[];" vertex="1" connectable="0" parent="4_8s0p-dxPG18xKzeY0c-29">
          <mxGeometry x="-0.4095" y="4" relative="1" as="geometry">
            <mxPoint x="-37" y="-4" as="offset" />
          </mxGeometry>
        </mxCell>
        <mxCell id="_VHohxqzNn0DekYgk-H4-2" value="Solar Cell" style="rounded=0;whiteSpace=wrap;html=1;" vertex="1" parent="1">
          <mxGeometry x="330" y="230" width="120" height="60" as="geometry" />
        </mxCell>
        <mxCell id="4_8s0p-dxPG18xKzeY0c-17" style="edgeStyle=orthogonalEdgeStyle;rounded=0;orthogonalLoop=1;jettySize=auto;html=1;entryX=0.5;entryY=0;entryDx=0;entryDy=0;" edge="1" parent="1" source="_VHohxqzNn0DekYgk-H4-3" target="_VHohxqzNn0DekYgk-H4-2">
          <mxGeometry relative="1" as="geometry" />
        </mxCell>
        <mxCell id="4_8s0p-dxPG18xKzeY0c-18" value="Monitors" style="edgeLabel;html=1;align=center;verticalAlign=middle;resizable=0;points=[];" vertex="1" connectable="0" parent="4_8s0p-dxPG18xKzeY0c-17">
          <mxGeometry x="0.54" relative="1" as="geometry">
            <mxPoint as="offset" />
          </mxGeometry>
        </mxCell>
        <mxCell id="4_8s0p-dxPG18xKzeY0c-19" value="Is monitored by" style="edgeLabel;html=1;align=center;verticalAlign=middle;resizable=0;points=[];" vertex="1" connectable="0" parent="4_8s0p-dxPG18xKzeY0c-17">
          <mxGeometry x="-0.68" y="1" relative="1" as="geometry">
            <mxPoint as="offset" />
          </mxGeometry>
        </mxCell>
        <mxCell id="_VHohxqzNn0DekYgk-H4-3" value="&lt;div&gt;MPP Tracker&lt;/div&gt;" style="rounded=0;whiteSpace=wrap;html=1;" vertex="1" parent="1">
          <mxGeometry x="330" y="70" width="120" height="60" as="geometry" />
        </mxCell>
        <mxCell id="4_8s0p-dxPG18xKzeY0c-23" style="edgeStyle=orthogonalEdgeStyle;rounded=0;orthogonalLoop=1;jettySize=auto;html=1;entryX=0;entryY=0.5;entryDx=0;entryDy=0;" edge="1" parent="1" source="_VHohxqzNn0DekYgk-H4-4" target="4_8s0p-dxPG18xKzeY0c-20">
          <mxGeometry relative="1" as="geometry" />
        </mxCell>
        <mxCell id="4_8s0p-dxPG18xKzeY0c-24" value="Measures" style="edgeLabel;html=1;align=center;verticalAlign=middle;resizable=0;points=[];" vertex="1" connectable="0" parent="4_8s0p-dxPG18xKzeY0c-23">
          <mxGeometry x="-0.6615" relative="1" as="geometry">
            <mxPoint as="offset" />
          </mxGeometry>
        </mxCell>
        <mxCell id="4_8s0p-dxPG18xKzeY0c-26" value="Is measured by" style="edgeLabel;html=1;align=center;verticalAlign=middle;resizable=0;points=[];" vertex="1" connectable="0" parent="4_8s0p-dxPG18xKzeY0c-23">
          <mxGeometry x="0.2308" y="-1" relative="1" as="geometry">
            <mxPoint x="-14" as="offset" />
          </mxGeometry>
        </mxCell>
        <mxCell id="_VHohxqzNn0DekYgk-H4-4" value="Irradiance Sensor" style="rounded=0;whiteSpace=wrap;html=1;" vertex="1" parent="1">
          <mxGeometry x="40" y="320" width="120" height="60" as="geometry" />
        </mxCell>
        <mxCell id="4_8s0p-dxPG18xKzeY0c-21" style="edgeStyle=orthogonalEdgeStyle;rounded=0;orthogonalLoop=1;jettySize=auto;html=1;entryX=1;entryY=0.5;entryDx=0;entryDy=0;" edge="1" parent="1" source="_VHohxqzNn0DekYgk-H4-5" target="4_8s0p-dxPG18xKzeY0c-20">
          <mxGeometry relative="1" as="geometry" />
        </mxCell>
        <mxCell id="4_8s0p-dxPG18xKzeY0c-22" value="Measures" style="edgeLabel;html=1;align=center;verticalAlign=middle;resizable=0;points=[];" vertex="1" connectable="0" parent="4_8s0p-dxPG18xKzeY0c-21">
          <mxGeometry x="-0.65" relative="1" as="geometry">
            <mxPoint as="offset" />
          </mxGeometry>
        </mxCell>
        <mxCell id="4_8s0p-dxPG18xKzeY0c-25" value="Is measured by" style="edgeLabel;html=1;align=center;verticalAlign=middle;resizable=0;points=[];" vertex="1" connectable="0" parent="4_8s0p-dxPG18xKzeY0c-21">
          <mxGeometry x="0.3" y="2" relative="1" as="geometry">
            <mxPoint x="21" as="offset" />
          </mxGeometry>
        </mxCell>
        <mxCell id="_VHohxqzNn0DekYgk-H4-5" value="&lt;div&gt;Temperature sensor&lt;/div&gt;" style="rounded=0;whiteSpace=wrap;html=1;" vertex="1" parent="1">
          <mxGeometry x="210" y="320" width="120" height="60" as="geometry" />
        </mxCell>
        <mxCell id="4_8s0p-dxPG18xKzeY0c-14" style="edgeStyle=orthogonalEdgeStyle;rounded=0;orthogonalLoop=1;jettySize=auto;html=1;exitX=1;exitY=0.25;exitDx=0;exitDy=0;entryX=0.75;entryY=1;entryDx=0;entryDy=0;" edge="1" parent="1" source="_VHohxqzNn0DekYgk-H4-6" target="_VHohxqzNn0DekYgk-H4-7">
          <mxGeometry relative="1" as="geometry" />
        </mxCell>
        <mxCell id="4_8s0p-dxPG18xKzeY0c-15" value="Contributes to" style="edgeLabel;html=1;align=center;verticalAlign=middle;resizable=0;points=[];" vertex="1" connectable="0" parent="4_8s0p-dxPG18xKzeY0c-14">
          <mxGeometry x="0.8235" y="-1" relative="1" as="geometry">
            <mxPoint as="offset" />
          </mxGeometry>
        </mxCell>
        <mxCell id="4_8s0p-dxPG18xKzeY0c-16" value="Is contributed by" style="edgeLabel;html=1;align=center;verticalAlign=middle;resizable=0;points=[];" vertex="1" connectable="0" parent="4_8s0p-dxPG18xKzeY0c-14">
          <mxGeometry x="-0.9235" relative="1" as="geometry">
            <mxPoint x="33" as="offset" />
          </mxGeometry>
        </mxCell>
        <mxCell id="_VHohxqzNn0DekYgk-H4-6" value="Experiment" style="rounded=0;whiteSpace=wrap;html=1;" vertex="1" parent="1">
          <mxGeometry x="555" y="480" width="120" height="60" as="geometry" />
        </mxCell>
        <mxCell id="_VHohxqzNn0DekYgk-H4-7" value="Project" style="rounded=0;whiteSpace=wrap;html=1;" vertex="1" parent="1">
          <mxGeometry x="700" y="210" width="120" height="60" as="geometry" />
        </mxCell>
        <mxCell id="4_8s0p-dxPG18xKzeY0c-1" style="edgeStyle=orthogonalEdgeStyle;rounded=0;orthogonalLoop=1;jettySize=auto;html=1;" edge="1" parent="1" source="_VHohxqzNn0DekYgk-H4-9" target="_VHohxqzNn0DekYgk-H4-2">
          <mxGeometry relative="1" as="geometry">
            <Array as="points">
              <mxPoint x="390" y="390" />
            </Array>
          </mxGeometry>
        </mxCell>
        <mxCell id="4_8s0p-dxPG18xKzeY0c-3" value="Produces" style="edgeLabel;html=1;align=center;verticalAlign=middle;resizable=0;points=[];" vertex="1" connectable="0" parent="4_8s0p-dxPG18xKzeY0c-1">
          <mxGeometry x="0.7962" y="1" relative="1" as="geometry">
            <mxPoint as="offset" />
          </mxGeometry>
        </mxCell>
        <mxCell id="4_8s0p-dxPG18xKzeY0c-4" value="&lt;div&gt;Is produced by&lt;/div&gt;" style="edgeLabel;html=1;align=center;verticalAlign=middle;resizable=0;points=[];" vertex="1" connectable="0" parent="4_8s0p-dxPG18xKzeY0c-1">
          <mxGeometry x="-0.834" y="-3" relative="1" as="geometry">
            <mxPoint x="-33" as="offset" />
          </mxGeometry>
        </mxCell>
        <mxCell id="4_8s0p-dxPG18xKzeY0c-5" style="edgeStyle=orthogonalEdgeStyle;rounded=0;orthogonalLoop=1;jettySize=auto;html=1;exitX=0.25;exitY=0;exitDx=0;exitDy=0;entryX=1;entryY=0.75;entryDx=0;entryDy=0;" edge="1" parent="1" source="_VHohxqzNn0DekYgk-H4-9" target="_VHohxqzNn0DekYgk-H4-2">
          <mxGeometry relative="1" as="geometry" />
        </mxCell>
        <mxCell id="4_8s0p-dxPG18xKzeY0c-6" value="Owns" style="edgeLabel;html=1;align=center;verticalAlign=middle;resizable=0;points=[];" vertex="1" connectable="0" parent="4_8s0p-dxPG18xKzeY0c-5">
          <mxGeometry x="0.7727" y="-1" relative="1" as="geometry">
            <mxPoint as="offset" />
          </mxGeometry>
        </mxCell>
        <mxCell id="4_8s0p-dxPG18xKzeY0c-7" value="Is owned by" style="edgeLabel;html=1;align=center;verticalAlign=middle;resizable=0;points=[];" vertex="1" connectable="0" parent="4_8s0p-dxPG18xKzeY0c-5">
          <mxGeometry x="-0.7364" y="-2" relative="1" as="geometry">
            <mxPoint as="offset" />
          </mxGeometry>
        </mxCell>
        <mxCell id="4_8s0p-dxPG18xKzeY0c-8" style="edgeStyle=orthogonalEdgeStyle;rounded=0;orthogonalLoop=1;jettySize=auto;html=1;entryX=0.333;entryY=1;entryDx=0;entryDy=0;entryPerimeter=0;" edge="1" parent="1" source="_VHohxqzNn0DekYgk-H4-9" target="_VHohxqzNn0DekYgk-H4-7">
          <mxGeometry relative="1" as="geometry">
            <mxPoint x="740" y="290" as="targetPoint" />
            <Array as="points">
              <mxPoint x="740" y="390" />
            </Array>
          </mxGeometry>
        </mxCell>
        <mxCell id="4_8s0p-dxPG18xKzeY0c-9" value="Is member of" style="edgeLabel;html=1;align=center;verticalAlign=middle;resizable=0;points=[];" vertex="1" connectable="0" parent="4_8s0p-dxPG18xKzeY0c-8">
          <mxGeometry x="0.7561" y="1" relative="1" as="geometry">
            <mxPoint y="25" as="offset" />
          </mxGeometry>
        </mxCell>
        <mxCell id="4_8s0p-dxPG18xKzeY0c-10" value="includes" style="edgeLabel;html=1;align=center;verticalAlign=middle;resizable=0;points=[];" vertex="1" connectable="0" parent="4_8s0p-dxPG18xKzeY0c-8">
          <mxGeometry x="-0.8829" y="1" relative="1" as="geometry">
            <mxPoint x="19" as="offset" />
          </mxGeometry>
        </mxCell>
        <mxCell id="4_8s0p-dxPG18xKzeY0c-11" style="edgeStyle=orthogonalEdgeStyle;rounded=0;orthogonalLoop=1;jettySize=auto;html=1;exitX=0.25;exitY=1;exitDx=0;exitDy=0;entryX=0.25;entryY=0;entryDx=0;entryDy=0;" edge="1" parent="1" source="_VHohxqzNn0DekYgk-H4-9" target="_VHohxqzNn0DekYgk-H4-6">
          <mxGeometry relative="1" as="geometry" />
        </mxCell>
        <mxCell id="4_8s0p-dxPG18xKzeY0c-12" value="Performs" style="edgeLabel;html=1;align=center;verticalAlign=middle;resizable=0;points=[];" vertex="1" connectable="0" parent="4_8s0p-dxPG18xKzeY0c-11">
          <mxGeometry x="0.3667" y="-1" relative="1" as="geometry">
            <mxPoint as="offset" />
          </mxGeometry>
        </mxCell>
        <mxCell id="4_8s0p-dxPG18xKzeY0c-13" value="Is performed by" style="edgeLabel;html=1;align=center;verticalAlign=middle;resizable=0;points=[];" vertex="1" connectable="0" parent="4_8s0p-dxPG18xKzeY0c-11">
          <mxGeometry x="-0.6333" y="3" relative="1" as="geometry">
            <mxPoint x="-5" y="4" as="offset" />
          </mxGeometry>
        </mxCell>
        <mxCell id="_VHohxqzNn0DekYgk-H4-9" value="Scientist" style="rounded=0;whiteSpace=wrap;html=1;" vertex="1" parent="1">
          <mxGeometry x="555" y="360" width="120" height="60" as="geometry" />
        </mxCell>
        <mxCell id="4_8s0p-dxPG18xKzeY0c-20" value="Environment" style="whiteSpace=wrap;html=1;" vertex="1" parent="1">
          <mxGeometry x="130" y="450" width="120" height="60" as="geometry" />
        </mxCell>
      </root>
    </mxGraphModel>
  </diagram>
  <diagram id="jyWhgLqYDszGOkp4fRps" name="Logical Data Model">
    <mxGraphModel dx="1873" dy="1187" grid="1" gridSize="10" guides="1" tooltips="1" connect="1" arrows="1" fold="1" page="1" pageScale="1" pageWidth="827" pageHeight="1169" math="0" shadow="0">
      <root>
        <mxCell id="0" />
        <mxCell id="1" parent="0" />
      </root>
    </mxGraphModel>
  </diagram>
  <diagram id="V-_eB5ZMC_vY0KfYtSzw" name="Physical Data model">
    <mxGraphModel dx="1873" dy="1187" grid="1" gridSize="10" guides="1" tooltips="1" connect="1" arrows="1" fold="1" page="1" pageScale="1" pageWidth="827" pageHeight="1169" math="0" shadow="0">
      <root>
        <mxCell id="0" />
        <mxCell id="1" parent="0" />
      </root>
    </mxGraphModel>
  </diagram>
</mxfile>
